<?xml version="1.0" encoding="utf-8"?>
<!-- Generator: Adobe Illustrator 16.0.0, SVG Export Plug-In . SVG Version: 6.00 Build 0)  -->
<!DOCTYPE svg PUBLIC "-//W3C//DTD SVG 1.1//EN" "http://www.w3.org/Graphics/SVG/1.1/DTD/svg11.dtd">
<svg version="1.1" id="Layer_1" xmlns="http://www.w3.org/2000/svg" xmlns:xlink="http://www.w3.org/1999/xlink" x="0px" y="0px"
	 width="1400px" height="980px" viewBox="0 0 1400 980" enable-background="new 0 0 1400 980" xml:space="preserve">
<pattern  x="300" y="90" width="128.144" height="130.854" patternUnits="userSpaceOnUse" id="New_Pattern_2" viewBox="14.928 -157.863 128.144 130.854" overflow="visible">
	<g>
		<polygon fill="none" points="14.928,-157.863 143.071,-157.863 143.071,-27.008 14.928,-27.008 		"/>
		<g>
			<g>
				<path fill="#C5BCB3" d="M130.977-33.29c-4.345,1.775-2.807,6.691-1.194,10.263c3.704,8.197,9.955,14.829,16.556,20.366
					c10.055,8.436,11.415-5.196,7.597-13c-3.021-6.175-7.786-11.74-13.301-15.344C137.934-32.77,134.036-34.539,130.977-33.29z"/>
				<path fill="#BCB1A7" d="M138.37-19.042l-0.061-0.242c-1.083-4.362-1.204-8.885-0.43-13.253c-2.251-1.031-4.779-1.62-6.903-0.753
					c-4.345,1.775-2.807,6.691-1.194,10.263c3.704,8.197,9.955,14.829,16.556,20.366c2.315,1.943,4.165,2.704,5.601,2.647
					C145.208-4.391,140.311-11.227,138.37-19.042z"/>
			</g>
		</g>
		<g>
			<g>
				<path fill="#C5BCB3" d="M2.833-33.29c-4.345,1.775-2.807,6.691-1.194,10.263C5.343-14.83,11.593-8.198,18.194-2.661
					c10.055,8.436,11.415-5.196,7.597-13c-3.021-6.175-7.786-11.74-13.301-15.344C9.791-32.77,5.893-34.539,2.833-33.29z"/>
				<path fill="#BCB1A7" d="M10.226-19.042l-0.061-0.242c-1.083-4.362-1.204-8.885-0.43-13.253c-2.251-1.031-4.779-1.62-6.903-0.753
					c-4.345,1.775-2.807,6.691-1.194,10.263C5.343-14.83,11.593-8.198,18.194-2.661c2.315,1.943,4.165,2.704,5.601,2.647
					C17.064-4.391,12.167-11.227,10.226-19.042z"/>
			</g>
		</g>
		<g>
			<g>
				<path fill="#C5AB94" d="M173.744-125.979c-1.024-1.899-2.322-3.381-3.849-4.107c-5.557-2.644-17.92,1.853-21.896,6.251
					c-4.118,4.557-5.785,11.074-5.925,17.078c-0.179,7.625,7.934,13.513,15.264,12.072c6.97-1.37,12.069-6.72,16.242-12.117
					C177.805-112.267,176.93-120.07,173.744-125.979z"/>
				<path fill="#B79D8A" d="M169.813-109.97c-4.469,4.469-10.603,7.011-16.926,7.011h-0.25c-3.661,0-7.256-0.857-10.504-2.442
					c0.739,6.951,8.315,12.07,15.205,10.717c6.97-1.37,12.069-6.72,16.242-12.117c2.971-3.843,3.413-8.839,2.311-13.522
					C174.778-116.444,172.701-112.859,169.813-109.97z"/>
			</g>
			<g>
				<path fill="#C5BCB3" d="M130.977-164.144c-4.345,1.775-2.807,6.691-1.194,10.262c3.704,8.197,9.955,14.83,16.556,20.367
					c10.055,8.436,11.415-5.197,7.597-13c-3.021-6.175-7.786-11.741-13.301-15.344C137.934-163.624,134.036-165.393,130.977-164.144
					z"/>
				<path fill="#BCB1A7" d="M138.37-149.896l-0.061-0.243c-1.083-4.362-1.204-8.885-0.43-13.252
					c-2.251-1.031-4.779-1.62-6.903-0.752c-4.345,1.775-2.807,6.691-1.194,10.262c3.704,8.197,9.955,14.83,16.556,20.367
					c2.315,1.942,4.165,2.704,5.601,2.647C145.208-135.245,140.311-142.082,138.37-149.896z"/>
			</g>
		</g>
		<g>
			<g>
				<path fill="#D8BCB9" d="M137.337-54.773c6.047,0.045,6.246-9.095,5.328-12.865c-1.408-5.788-5.123-11.08-9.357-15.161
					c-5.086-4.901-17.244-10.079-18.827,0.855c-0.937,6.469-2.965,9.823-7.719,14.387c-3.526,3.385-11.127,12.016-4.157,15.877
					c7.115,3.943,15.108-2.922,21.68-4.556C129.065-57.423,132.765-54.807,137.337-54.773z"/>
				<path fill="#CEB2AF" d="M142.665-67.638c-1.408-5.788-5.123-11.08-9.357-15.161c-2.834-2.731-7.862-5.545-12.035-5.612
					c4.262,5.423,6.831,12.212,6.831,19.515c0,4.396-0.931,8.604-2.599,12.442c4.207-0.524,7.657,1.65,11.832,1.682
					C143.384-54.728,143.583-63.868,142.665-67.638z"/>
			</g>
			<g>
				<path fill="#A7876E" d="M102.313-70.27c6.471-1.951,5.86-6.274,4.458-11.613c-1.524-5.802-5.308-10.236-10.941-13.024
					c-4.389-2.173-9.686-2.867-14.479-1.866c-20.74,4.333-17.235,29.391-8.96,42.862c3.645,5.934,13.425,5.579,17.622,0.287
					c2.755-3.474,2.098-7.91,3.788-11.744C95.479-69.176,98.733-69.19,102.313-70.27z"/>
				<path fill="#9B7A64" d="M70.883-86.147c0-1.874,0.179-3.713,0.501-5.506c-9.093,9.156-5.545,27.075,1.006,37.741
					c3.645,5.934,13.425,5.579,17.622,0.287c0.689-0.868,1.164-1.797,1.517-2.762C79.56-61.001,70.883-72.71,70.883-86.147z"/>
			</g>
			<g>
				<path fill="#7E6B5D" d="M63.246-91.29c7.423-1.743,16.086-6.732,16.099-15.336c0.027-18.534-39.613-14.886-28.228,7.389
					C53.46-94.652,57.6-89.963,63.246-91.29z"/>
				<path fill="#725F52" d="M64.244-99.537c-5.272,0-10.276-1.342-14.693-3.688c0.335,1.255,0.849,2.585,1.566,3.988
					c2.343,4.585,6.483,9.273,12.129,7.947c6.361-1.494,13.617-5.381,15.575-11.875C74.432-100.856,69.47-99.537,64.244-99.537z"/>
			</g>
			<g>
				<path fill="#7E6B5D" d="M109.042-36.094c3.102,2.966,8.116,5.521,12.178,2.885c8.751-5.679-5.143-23.258-12.154-11.046
					C107.623-41.743,106.682-38.35,109.042-36.094z"/>
				<path fill="#725F52" d="M113.239-38.156c-1.619-2.487-2.522-5.26-2.772-8.063c-0.489,0.542-0.959,1.193-1.401,1.964
					c-1.443,2.513-2.384,5.905-0.024,8.161c2.658,2.542,6.72,4.771,10.384,3.7C116.99-33.755,114.844-35.69,113.239-38.156z"/>
			</g>
			<g>
				<path fill="#898A84" d="M56.357-33.067c5.6,0.87,9.872-0.471,11.167-6.32c1.003-4.529,3.616-12.942-0.452-16.618
					c-5.258-4.748-12.196,3.827-17.509,5.083c-4.33,1.021-9.493,0.5-13.559,2.4C24.511-43.151,51.993-33.745,56.357-33.067z"/>
				<path fill="#7F7F79" d="M52.994-38.959c-7.326,0-13.971-3.434-18.391-8.754c-7.479,5.455,17.602,14.002,21.754,14.646
					c5.6,0.87,9.872-0.471,11.167-6.32c0.341-1.543,0.866-3.538,1.254-5.641C64.54-41.269,58.997-38.959,52.994-38.959z"/>
			</g>
			<g>
				<path fill="#E6F9FF" d="M138.068-108.496c0.149-4.652-1.371-8.001-6.269-8.473c-3.793-0.365-10.913-1.654-13.502,2.03
					c-3.345,4.761,4.339,9.56,5.894,13.766c1.265,3.428,1.356,7.688,3.312,10.813C133.03-81.526,137.952-104.871,138.068-108.496z"
					/>
				<path fill="#DCEFF4" d="M133.6-105.166c0.732,5.974-1.403,11.733-5.298,15.868c5.195,5.552,9.656-15.75,9.766-19.199
					c0.149-4.652-1.371-8.001-6.269-8.473c-1.292-0.124-2.971-0.353-4.724-0.458C130.563-114.347,133-110.06,133.6-105.166z"/>
			</g>
			<g>
				<path fill="#C5AB94" d="M45.601-125.979c-1.024-1.899-2.322-3.381-3.849-4.107c-5.557-2.644-17.92,1.853-21.896,6.251
					c-4.118,4.557-5.785,11.074-5.925,17.078c-0.179,7.625,7.934,13.513,15.264,12.072c6.97-1.37,12.069-6.72,16.242-12.117
					C49.662-112.267,48.787-120.07,45.601-125.979z"/>
				<path fill="#B79D8A" d="M41.67-109.97c-4.469,4.469-10.603,7.011-16.926,7.011h-0.25c-3.661,0-7.256-0.857-10.504-2.442
					c0.739,6.951,8.315,12.07,15.205,10.717c6.97-1.37,12.069-6.72,16.242-12.117c2.971-3.843,3.413-8.839,2.311-13.522
					C46.635-116.444,44.558-112.859,41.67-109.97z"/>
			</g>
			<g>
				<path fill="#C5AB94" d="M158.25-33.374c1.134-0.92,1.956-1.969,2.247-3.075c1.059-4.024-3.481-11.678-6.903-13.769
					c-3.546-2.166-8.087-2.455-12.096-1.795c-5.091,0.839-7.986,6.97-6.108,11.661c1.785,4.461,5.982,7.18,10.093,9.275
					C149.646-28.953,154.722-30.515,158.25-33.374z"/>
				<path fill="#B79D8A" d="M147.116-33.977c-3.532-2.41-5.992-6.168-6.785-10.371l-0.032-0.166
					c-0.459-2.434-0.341-4.931,0.305-7.288c-4.527,1.363-6.979,7.041-5.214,11.451c1.785,4.461,5.982,7.18,10.093,9.275
					c2.927,1.491,6.304,1.159,9.278-0.161C152.042-31.491,149.398-32.42,147.116-33.977z"/>
			</g>
			<g>
				<path fill="#E6F9FF" d="M59.053-71.887c0.553-10.19-4.716-27.802-18.251-23.939c-7.112,2.03-17.136,7.038-20.17,14.187
					c-4.256,10.029,6.476,18.916,14.327,22.925c4.843,2.472,11.585,5.453,17,3.038C58.172-58.45,58.731-65.972,59.053-71.887z"/>
				<path fill="#DCEFF4" d="M39.817-58.97c-4.469-4.47-7.011-10.604-7.011-16.927s2.542-12.457,7.011-16.926
					c1.37-1.369,2.896-2.556,4.536-3.546c-1.114,0.013-2.297,0.185-3.551,0.542c-7.112,2.03-17.136,7.038-20.17,14.187
					c-4.256,10.029,6.476,18.916,14.327,22.925c2.931,1.496,6.557,3.171,10.164,3.73C43.19-56.056,41.398-57.39,39.817-58.97z"/>
			</g>
			<g>
				<path fill="#928B83" d="M73.079-150.56c-5.425-4.016-11.284-6.824-15.063-7.17c-8.111-0.742-19.527,1.539-24.089,9.138
					c-5.776,9.621,8.251,15.775,14.83,19.554c3.785,2.175,7.936,3.61,12.142,4.712c6.426,1.683,20.559,6.345,23.677-2.515
					C87.547-135.289,79.353-145.916,73.079-150.56z"/>
				<path fill="#89817A" d="M78.772-141.618c-5.948,5.947-14.113,9.331-22.529,9.331h-0.25c-8.416,0-16.581-3.384-22.529-9.331
					c-0.225-0.226-0.44-0.46-0.658-0.691c1.598,6.126,10.934,10.39,15.949,13.271c3.785,2.175,7.936,3.61,12.142,4.712
					c6.426,1.683,20.559,6.345,23.677-2.515c1.856-5.276-0.643-11.402-4.311-16.391C79.785-142.679,79.292-142.137,78.772-141.618z"
					/>
			</g>
			<g>
				<path fill="#C5BCB3" d="M120.79-120.433c4.248-2.571,11.363-8.421,12.326-13.621c0.682-3.682-1.515-10.527-3.572-13.617
					c-3.436-5.157-8.373-8.964-14.807-7.915c-9.465,1.543-38.45,14.018-24.394,26.192c5,4.331,11.827,9.077,17.715,12.149
					C112.857-114.742,116.682-117.946,120.79-120.433z"/>
				<path fill="#BCB2AA" d="M123.929-131.655c-2.395,1.678-4.966,2.755-7.716,3.23c-5.646,1.518-11.293,1.518-16.939,0
					c-2.537-1.071-5.074-2.142-7.611-3.212c-1.795-1.052-3.476-2.278-5.022-3.65c0.284,1.939,1.426,3.92,3.703,5.893
					c5,4.331,11.827,9.077,17.715,12.149c4.798,2.503,8.623-0.701,12.731-3.188c4.248-2.571,11.363-8.421,12.326-13.621
					c0.268-1.448,0.087-3.387-0.352-5.393C130.362-136.268,128.712-134.792,123.929-131.655z"/>
			</g>
			<g>
				<path fill="#E4C3B2" d="M103.372-94.271c3.594,4.032,10.235,14.419,13.678,3.831c2.44-7.506-3.447-16.462-8.102-21.915
					c-3.931-4.605-10.402-9.153-16.704-9.532c-10.067-0.606-16.307,10.492-6.343,16.212c4.078,2.34,8.639,3.871,12.471,6.634
					C100.158-97.753,101.789-96.046,103.372-94.271z"/>
				<path fill="#DBBBAD" d="M108.947-112.355c-3.718-4.355-9.707-8.653-15.676-9.429c10.357,5.308,17.583,16.127,17.583,28.387
					c0,2.206-0.236,4.365-0.68,6.455c2.572,1.843,5.133,1.86,6.875-3.498C119.49-97.946,113.603-106.902,108.947-112.355z"/>
			</g>
			<g>
				<path fill="#C5BCB3" d="M70.056-25.03c0.675,4.645,5.817,4.338,9.671,3.634c8.849-1.618,16.792-6.085,23.758-11.156
					c10.611-7.725-2.291-12.331-10.785-10.508c-6.721,1.443-13.272,4.726-18.099,9.209C72.238-31.657,69.582-28.3,70.056-25.03z"/>
				<path fill="#BCB1A7" d="M85.666-28.769h-0.25c-4.494,0-8.913-0.974-12.965-2.778c-1.543,1.936-2.725,4.247-2.395,6.518
					c0.675,4.645,5.817,4.338,9.671,3.634c8.849-1.618,16.792-6.085,23.758-11.156c2.443-1.778,3.628-3.39,3.919-4.797
					C101.534-31.873,93.718-28.769,85.666-28.769z"/>
			</g>
			<g>
				<path fill="#C5BCB3" d="M2.833-164.144c-4.345,1.775-2.807,6.691-1.194,10.262c3.704,8.197,9.955,14.83,16.556,20.367
					c10.055,8.436,11.415-5.197,7.597-13c-3.021-6.175-7.786-11.741-13.301-15.344C9.791-163.624,5.893-165.393,2.833-164.144z"/>
				<path fill="#BCB1A7" d="M10.226-149.896l-0.061-0.243c-1.083-4.362-1.204-8.885-0.43-13.252
					c-2.251-1.031-4.779-1.62-6.903-0.752c-4.345,1.775-2.807,6.691-1.194,10.262c3.704,8.197,9.955,14.83,16.556,20.367
					c2.315,1.942,4.165,2.704,5.601,2.647C17.064-135.245,12.167-142.082,10.226-149.896z"/>
			</g>
		</g>
		<g>
			<g>
				<path fill="#C5AB94" d="M30.106-33.374c1.134-0.92,1.956-1.969,2.247-3.075c1.059-4.024-3.481-11.678-6.903-13.769
					c-3.546-2.166-8.087-2.455-12.096-1.795c-5.091,0.839-7.986,6.97-6.108,11.661c1.785,4.461,5.982,7.18,10.093,9.275
					C21.502-28.953,26.579-30.515,30.106-33.374z"/>
				<path fill="#B79D8A" d="M18.972-33.977c-3.532-2.41-5.992-6.168-6.785-10.371l-0.032-0.166
					c-0.459-2.434-0.341-4.931,0.305-7.288c-4.527,1.363-6.979,7.041-5.214,11.451c1.785,4.461,5.982,7.18,10.093,9.275
					c2.927,1.491,6.304,1.159,9.278-0.161C23.898-31.491,21.254-32.42,18.972-33.977z"/>
			</g>
		</g>
		<g>
			<g>
				<path fill="#C5BCB3" d="M70.056-155.884c0.675,4.645,5.817,4.338,9.671,3.634c8.849-1.618,16.792-6.085,23.758-11.156
					c10.611-7.725-2.291-12.331-10.785-10.508c-6.721,1.443-13.272,4.726-18.099,9.209
					C72.238-162.511,69.582-159.155,70.056-155.884z"/>
				<path fill="#BCB1A7" d="M85.666-159.624h-0.25c-4.494,0-8.913-0.974-12.965-2.778c-1.543,1.936-2.725,4.247-2.395,6.518
					c0.675,4.645,5.817,4.338,9.671,3.634c8.849-1.618,16.792-6.085,23.758-11.156c2.443-1.778,3.628-3.39,3.919-4.797
					C101.534-162.727,93.718-159.624,85.666-159.624z"/>
			</g>
		</g>
	</g>
</pattern>
<rect fill-rule="evenodd" clip-rule="evenodd" fill="#231F20" width="1400" height="980"/>
<pattern  id="SVGID_1_" xlink:href="#New_Pattern_2" patternTransform="matrix(3.96 0 0 3.96 23002.4434 20485.3281)">
</pattern>
<rect fill-rule="evenodd" clip-rule="evenodd" fill="url(#SVGID_1_)" width="1400" height="980"/>
</svg>
